<mxfile host="65bd71144e">
    <diagram id="yTASJzzTeYD2qtYr5w4g" name="Page-1">
        <mxGraphModel dx="1204" dy="798" grid="1" gridSize="10" guides="1" tooltips="1" connect="1" arrows="1" fold="1" page="1" pageScale="1" pageWidth="827" pageHeight="1169" math="0" shadow="0">
            <root>
                <mxCell id="0"/>
                <mxCell id="1" parent="0"/>
                <mxCell id="2" value="Sort::Update" style="swimlane;" vertex="1" parent="1">
                    <mxGeometry x="64" y="360" width="756" height="630" as="geometry"/>
                </mxCell>
                <mxCell id="5" value="" style="edgeStyle=none;html=1;" edge="1" parent="2" source="3" target="4">
                    <mxGeometry relative="1" as="geometry"/>
                </mxCell>
                <mxCell id="3" value="&lt;font style=&quot;font-size: 14px&quot;&gt;boxes&lt;/font&gt;" style="shape=parallelogram;perimeter=parallelogramPerimeter;whiteSpace=wrap;html=1;fixedSize=1;" vertex="1" parent="2">
                    <mxGeometry x="90" y="50" width="120" height="60" as="geometry"/>
                </mxCell>
                <mxCell id="9" value="" style="edgeStyle=none;html=1;" edge="1" parent="2" source="4" target="8">
                    <mxGeometry relative="1" as="geometry"/>
                </mxCell>
                <mxCell id="4" value="&lt;pre style=&quot;background-color: rgb(43 , 43 , 43) ; color: rgb(169 , 183 , 198) ; font-family: &amp;#34;jetbrains mono&amp;#34; , monospace&quot;&gt;&lt;span style=&quot;color: rgb(147 , 115 , 165)&quot;&gt;&lt;font style=&quot;font-size: 14px&quot;&gt;frameNum++&lt;/font&gt;&lt;/span&gt;&lt;/pre&gt;" style="whiteSpace=wrap;html=1;" vertex="1" parent="2">
                    <mxGeometry x="290" y="50" width="120" height="60" as="geometry"/>
                </mxCell>
                <mxCell id="11" value="" style="edgeStyle=none;html=1;" edge="1" parent="2" source="8" target="10">
                    <mxGeometry relative="1" as="geometry"/>
                </mxCell>
                <mxCell id="12" value="&lt;span style=&quot;font-size: 14px&quot;&gt;Y&lt;/span&gt;" style="edgeLabel;html=1;align=center;verticalAlign=middle;resizable=0;points=[];" vertex="1" connectable="0" parent="11">
                    <mxGeometry x="-0.28" y="2" relative="1" as="geometry">
                        <mxPoint as="offset"/>
                    </mxGeometry>
                </mxCell>
                <mxCell id="16" value="" style="edgeStyle=none;html=1;fontSize=14;" edge="1" parent="2" source="8" target="15">
                    <mxGeometry relative="1" as="geometry"/>
                </mxCell>
                <mxCell id="17" value="N" style="edgeLabel;html=1;align=center;verticalAlign=middle;resizable=0;points=[];fontSize=14;" vertex="1" connectable="0" parent="16">
                    <mxGeometry x="-0.328" y="3" relative="1" as="geometry">
                        <mxPoint as="offset"/>
                    </mxGeometry>
                </mxCell>
                <mxCell id="8" value="&lt;pre style=&quot;background-color: rgb(43 , 43 , 43) ; color: rgb(169 , 183 , 198) ; font-family: &amp;#34;jetbrains mono&amp;#34; , monospace&quot;&gt;&lt;font style=&quot;font-size: 14px&quot;&gt;&lt;span style=&quot;color: rgb(104 , 151 , 187)&quot;&gt;0 &lt;/span&gt;== &lt;span style=&quot;color: rgb(147 , 115 , 165)&quot;&gt;trackers&lt;/span&gt;.size()&lt;/font&gt;&lt;/pre&gt;" style="rhombus;whiteSpace=wrap;html=1;" vertex="1" parent="2">
                    <mxGeometry x="245" y="140" width="210" height="80" as="geometry"/>
                </mxCell>
                <mxCell id="14" value="" style="edgeStyle=none;html=1;fontSize=14;" edge="1" parent="2" source="10" target="13">
                    <mxGeometry relative="1" as="geometry"/>
                </mxCell>
                <mxCell id="10" value="&lt;pre style=&quot;background-color: #2b2b2b ; color: #a9b7c6 ; font-family: &amp;#34;jetbrains mono&amp;#34; , monospace ; font-size: 9.0pt&quot;&gt;&lt;pre style=&quot;font-family: &amp;#34;jetbrains mono&amp;#34; , monospace ; font-size: 9pt&quot;&gt;&lt;span style=&quot;color: #b5b6e3&quot;&gt;KalmanTracker&lt;/span&gt;::&lt;/pre&gt;&lt;pre style=&quot;font-family: &amp;#34;jetbrains mono&amp;#34; , monospace ; font-size: 9pt&quot;&gt;&lt;span style=&quot;color: #ffc66d&quot;&gt;KalmanTracker&lt;/span&gt;()&lt;/pre&gt;&lt;/pre&gt;" style="whiteSpace=wrap;html=1;" vertex="1" parent="2">
                    <mxGeometry x="50" y="150" width="120" height="60" as="geometry"/>
                </mxCell>
                <mxCell id="13" value="&lt;pre style=&quot;background-color: rgb(43 , 43 , 43) ; color: rgb(169 , 183 , 198) ; font-family: &amp;#34;jetbrains mono&amp;#34; , monospace&quot;&gt;&lt;font style=&quot;font-size: 14px&quot;&gt; &lt;span style=&quot;color: rgb(181 , 182 , 227)&quot;&gt;KalmanTracker&lt;/span&gt;::&lt;/font&gt;&lt;/pre&gt;&lt;pre style=&quot;background-color: rgb(43 , 43 , 43) ; color: rgb(169 , 183 , 198) ; font-family: &amp;#34;jetbrains mono&amp;#34; , monospace&quot;&gt;&lt;font size=&quot;3&quot;&gt;&lt;span style=&quot;color: rgb(255 , 198 , 109)&quot;&gt;GetState&lt;/span&gt;()&lt;/font&gt;&lt;/pre&gt;" style="whiteSpace=wrap;html=1;" vertex="1" parent="2">
                    <mxGeometry x="35" y="290" width="150" height="60" as="geometry"/>
                </mxCell>
                <mxCell id="19" value="" style="edgeStyle=none;html=1;fontSize=14;" edge="1" parent="2" source="15" target="18">
                    <mxGeometry relative="1" as="geometry"/>
                </mxCell>
                <mxCell id="15" value="&lt;pre style=&quot;background-color: rgb(43 , 43 , 43) ; color: rgb(169 , 183 , 198) ; font-family: &amp;#34;jetbrains mono&amp;#34; , monospace&quot;&gt;&lt;pre style=&quot;font-family: &amp;#34;jetbrains mono&amp;#34; , monospace&quot;&gt;&lt;font style=&quot;font-size: 14px&quot;&gt;&lt;span style=&quot;color: rgb(181 , 182 , 227)&quot;&gt;Sort&lt;/span&gt;::&lt;span style=&quot;color: rgb(255 , 198 , 109)&quot;&gt;Predict&lt;/span&gt;()&lt;/font&gt;&lt;/pre&gt;&lt;/pre&gt;" style="whiteSpace=wrap;html=1;" vertex="1" parent="2">
                    <mxGeometry x="530" y="150" width="170" height="60" as="geometry"/>
                </mxCell>
                <mxCell id="18" value="&lt;pre style=&quot;background-color: rgb(43 , 43 , 43) ; color: rgb(169 , 183 , 198) ; font-family: &amp;#34;jetbrains mono&amp;#34; , monospace&quot;&gt;&lt;pre style=&quot;font-family: &amp;#34;jetbrains mono&amp;#34; , monospace&quot;&gt;&lt;font style=&quot;font-size: 14px&quot;&gt;&lt;span style=&quot;color: rgb(181 , 182 , 227)&quot;&gt;Sort&lt;/span&gt;::&lt;span style=&quot;color: rgb(255 , 198 , 109)&quot;&gt;Tracker()&lt;/span&gt;&lt;/font&gt;&lt;/pre&gt;&lt;/pre&gt;" style="whiteSpace=wrap;html=1;" vertex="1" parent="2">
                    <mxGeometry x="555" y="290" width="120" height="60" as="geometry"/>
                </mxCell>
                <mxCell id="20" value="trackingResult" style="shape=parallelogram;perimeter=parallelogramPerimeter;whiteSpace=wrap;html=1;fixedSize=1;fontSize=14;" vertex="1" parent="2">
                    <mxGeometry x="50" y="460" width="120" height="60" as="geometry"/>
                </mxCell>
                <mxCell id="21" value="" style="endArrow=classic;html=1;fontSize=14;exitX=0.5;exitY=1;exitDx=0;exitDy=0;entryX=0.5;entryY=0;entryDx=0;entryDy=0;" edge="1" parent="2" source="13" target="20">
                    <mxGeometry width="50" height="50" relative="1" as="geometry">
                        <mxPoint x="326" y="270" as="sourcePoint"/>
                        <mxPoint x="376" y="220" as="targetPoint"/>
                    </mxGeometry>
                </mxCell>
                <mxCell id="22" value="" style="endArrow=classic;html=1;fontSize=14;exitX=0.5;exitY=1;exitDx=0;exitDy=0;" edge="1" parent="2" source="18">
                    <mxGeometry width="50" height="50" relative="1" as="geometry">
                        <mxPoint x="366" y="460" as="sourcePoint"/>
                        <mxPoint x="116" y="420" as="targetPoint"/>
                        <Array as="points">
                            <mxPoint x="615" y="420"/>
                        </Array>
                    </mxGeometry>
                </mxCell>
                <mxCell id="6" value="Sort::Sort()" style="swimlane;" vertex="1" parent="1">
                    <mxGeometry x="130" y="50" width="550" height="230" as="geometry"/>
                </mxCell>
                <mxCell id="7" value="&lt;pre style=&quot;background-color: #2b2b2b ; color: #a9b7c6 ; font-family: &amp;#34;jetbrains mono&amp;#34; , monospace ; font-size: 9.0pt&quot;&gt;&lt;span style=&quot;color: #9373a5&quot;&gt;MAX_AGE&lt;/span&gt;(&lt;span style=&quot;color: #6897bb&quot;&gt;1&lt;/span&gt;)&lt;/pre&gt;&lt;pre style=&quot;background-color: #2b2b2b ; color: #a9b7c6 ; font-family: &amp;#34;jetbrains mono&amp;#34; , monospace ; font-size: 9.0pt&quot;&gt;&lt;pre style=&quot;font-family: &amp;#34;jetbrains mono&amp;#34; , monospace ; font-size: 9pt&quot;&gt;&lt;span style=&quot;color: #9373a5&quot;&gt;MIN_HISTS&lt;/span&gt;(&lt;span style=&quot;color: #6897bb&quot;&gt;3&lt;/span&gt;)&lt;/pre&gt;&lt;pre style=&quot;font-family: &amp;#34;jetbrains mono&amp;#34; , monospace ; font-size: 9pt&quot;&gt;&lt;pre style=&quot;font-family: &amp;#34;jetbrains mono&amp;#34; , monospace ; font-size: 9pt&quot;&gt;&lt;span style=&quot;color: #9373a5&quot;&gt;frameNum&lt;/span&gt;(&lt;span style=&quot;color: #6897bb&quot;&gt;0&lt;/span&gt;)&lt;/pre&gt;&lt;pre style=&quot;font-family: &amp;#34;jetbrains mono&amp;#34; , monospace ; font-size: 9pt&quot;&gt;&lt;span style=&quot;color: #9373a5&quot;&gt;iouThreshold&lt;/span&gt;(&lt;span style=&quot;color: #6897bb&quot;&gt;0.3&lt;/span&gt;)&lt;/pre&gt;&lt;/pre&gt;&lt;/pre&gt;" style="rounded=0;whiteSpace=wrap;html=1;" vertex="1" parent="6">
                    <mxGeometry x="120" y="50" width="280" height="150" as="geometry"/>
                </mxCell>
                <mxCell id="23" value="KalmanTracker::KalmanTracker()" style="swimlane;fontSize=14;" vertex="1" parent="1">
                    <mxGeometry x="130" y="1060" width="505" height="370" as="geometry"/>
                </mxCell>
                <mxCell id="24" value="&lt;pre style=&quot;background-color: #2b2b2b ; color: #a9b7c6 ; font-family: &amp;#34;jetbrains mono&amp;#34; , monospace ; font-size: 9.0pt&quot;&gt;&lt;span style=&quot;color: #9373a5&quot;&gt;timeSinceUpdate &lt;/span&gt;= &lt;span style=&quot;color: #6897bb&quot;&gt;0&lt;/span&gt;&lt;span style=&quot;color: #cc7832&quot;&gt;;&lt;br&gt;&lt;/span&gt;&lt;span style=&quot;color: #9373a5&quot;&gt;hits &lt;/span&gt;= &lt;span style=&quot;color: #6897bb&quot;&gt;0&lt;/span&gt;&lt;span style=&quot;color: #cc7832&quot;&gt;;&lt;br&gt;&lt;/span&gt;&lt;span style=&quot;color: #9373a5&quot;&gt;hitStreak &lt;/span&gt;= &lt;span style=&quot;color: #6897bb&quot;&gt;0&lt;/span&gt;&lt;span style=&quot;color: #cc7832&quot;&gt;;&lt;br&gt;&lt;/span&gt;&lt;span style=&quot;color: #9373a5&quot;&gt;age &lt;/span&gt;= &lt;span style=&quot;color: #6897bb&quot;&gt;0&lt;/span&gt;&lt;span style=&quot;color: #cc7832&quot;&gt;;&lt;br&gt;&lt;/span&gt;&lt;span style=&quot;color: #9373a5&quot;&gt;id &lt;/span&gt;= &lt;span style=&quot;color: #9373a5&quot;&gt;kfCount&lt;/span&gt;&lt;span style=&quot;color: #cc7832&quot;&gt;;&lt;br&gt;&lt;/span&gt;&lt;span style=&quot;color: #9373a5&quot;&gt;kfCount&lt;/span&gt;++&lt;span style=&quot;color: #cc7832&quot;&gt;;&lt;/span&gt;&lt;/pre&gt;" style="whiteSpace=wrap;html=1;fontSize=14;" vertex="1" parent="23">
                    <mxGeometry x="155" y="210" width="200" height="120" as="geometry"/>
                </mxCell>
                <mxCell id="26" value="&lt;pre style=&quot;background-color: #2b2b2b ; color: #a9b7c6 ; font-family: &amp;#34;jetbrains mono&amp;#34; , monospace ; font-size: 9.0pt&quot;&gt;&lt;span style=&quot;color: #b5b6e3&quot;&gt;KalmanTracker&lt;/span&gt;::&lt;span style=&quot;color: #ffc66d&quot;&gt;InitKf()&lt;/span&gt;&lt;/pre&gt;&lt;pre style=&quot;background-color: #2b2b2b ; color: #a9b7c6 ; font-family: &amp;#34;jetbrains mono&amp;#34; , monospace ; font-size: 9.0pt&quot;&gt;&lt;pre style=&quot;font-family: &amp;#34;jetbrains mono&amp;#34; , monospace ; font-size: 9pt&quot;&gt;Init KalmanTracker parameters&lt;/pre&gt;&lt;/pre&gt;" style="rounded=0;whiteSpace=wrap;html=1;fontSize=14;" vertex="1" parent="23">
                    <mxGeometry x="145" y="60" width="220" height="70" as="geometry"/>
                </mxCell>
                <mxCell id="27" value="" style="endArrow=classic;html=1;fontSize=14;exitX=0.5;exitY=1;exitDx=0;exitDy=0;entryX=0.5;entryY=0;entryDx=0;entryDy=0;" edge="1" parent="23" source="26" target="24">
                    <mxGeometry width="50" height="50" relative="1" as="geometry">
                        <mxPoint x="260" y="70" as="sourcePoint"/>
                        <mxPoint x="310" y="20" as="targetPoint"/>
                    </mxGeometry>
                </mxCell>
                <mxCell id="28" value="Sort::Predict()" style="swimlane;fontSize=14;" vertex="1" parent="1">
                    <mxGeometry x="50" y="1470" width="706.25" height="630" as="geometry"/>
                </mxCell>
                <mxCell id="31" value="" style="edgeStyle=none;html=1;fontSize=14;" edge="1" parent="28" source="29" target="30">
                    <mxGeometry relative="1" as="geometry"/>
                </mxCell>
                <mxCell id="29" value="tracker : trackers" style="rounded=0;whiteSpace=wrap;html=1;fontSize=14;" vertex="1" parent="28">
                    <mxGeometry x="221.25" y="60" width="120" height="60" as="geometry"/>
                </mxCell>
                <mxCell id="30" value="&lt;pre style=&quot;background-color: rgb(43 , 43 , 43) ; color: rgb(169 , 183 , 198) ; font-family: &amp;#34;jetbrains mono&amp;#34; , monospace&quot;&gt;&lt;font style=&quot;font-size: 14px&quot;&gt;tracker.Predict()&lt;/font&gt;&lt;/pre&gt;" style="whiteSpace=wrap;html=1;fontSize=14;rounded=0;" vertex="1" parent="28">
                    <mxGeometry x="191.88" y="200" width="178.75" height="60" as="geometry"/>
                </mxCell>
                <mxCell id="32" value="pBox.data.x &amp;gt;= 0&lt;br&gt;&amp;amp;&amp;amp; pBox.data.y &amp;gt;= 0" style="rhombus;whiteSpace=wrap;html=1;fontSize=14;" vertex="1" parent="28">
                    <mxGeometry x="201.26" y="320" width="160" height="110" as="geometry"/>
                </mxCell>
                <mxCell id="33" value="" style="endArrow=classic;html=1;fontSize=14;exitX=0.5;exitY=1;exitDx=0;exitDy=0;" edge="1" parent="28" source="30" target="32">
                    <mxGeometry width="50" height="50" relative="1" as="geometry">
                        <mxPoint x="286.25" y="360" as="sourcePoint"/>
                        <mxPoint x="336.25" y="310" as="targetPoint"/>
                    </mxGeometry>
                </mxCell>
                <mxCell id="36" value="delete tracker" style="rounded=0;whiteSpace=wrap;html=1;fontSize=14;" vertex="1" parent="28">
                    <mxGeometry x="456.25" y="345" width="120" height="60" as="geometry"/>
                </mxCell>
                <mxCell id="37" value="tracker result" style="rounded=0;whiteSpace=wrap;html=1;fontSize=14;" vertex="1" parent="28">
                    <mxGeometry x="221.26" y="480" width="120" height="60" as="geometry"/>
                </mxCell>
                <mxCell id="35" value="" style="endArrow=classic;html=1;fontSize=14;exitX=1;exitY=0.5;exitDx=0;exitDy=0;" edge="1" parent="28" source="32" target="36">
                    <mxGeometry width="50" height="50" relative="1" as="geometry">
                        <mxPoint x="366.25" y="380" as="sourcePoint"/>
                        <mxPoint x="456.25" y="380" as="targetPoint"/>
                    </mxGeometry>
                </mxCell>
                <mxCell id="38" value="N" style="edgeLabel;html=1;align=center;verticalAlign=middle;resizable=0;points=[];fontSize=14;" vertex="1" connectable="0" parent="35">
                    <mxGeometry x="-0.5159" y="1" relative="1" as="geometry">
                        <mxPoint as="offset"/>
                    </mxGeometry>
                </mxCell>
                <mxCell id="40" value="" style="endArrow=classic;html=1;fontSize=14;exitX=0.5;exitY=1;exitDx=0;exitDy=0;entryX=0.5;entryY=0;entryDx=0;entryDy=0;" edge="1" parent="28" source="32" target="37">
                    <mxGeometry width="50" height="50" relative="1" as="geometry">
                        <mxPoint x="340" y="350" as="sourcePoint"/>
                        <mxPoint x="390" y="300" as="targetPoint"/>
                    </mxGeometry>
                </mxCell>
                <mxCell id="41" value="Y" style="edgeLabel;html=1;align=center;verticalAlign=middle;resizable=0;points=[];fontSize=14;" vertex="1" connectable="0" parent="40">
                    <mxGeometry x="-0.44" y="5" relative="1" as="geometry">
                        <mxPoint as="offset"/>
                    </mxGeometry>
                </mxCell>
                <mxCell id="42" value="Sort::Tracker()" style="swimlane;fontSize=14;" vertex="1" parent="1">
                    <mxGeometry x="54" y="2140" width="720" height="610" as="geometry"/>
                </mxCell>
                <mxCell id="45" value="" style="edgeStyle=none;html=1;fontSize=14;" edge="1" parent="42" source="43" target="44">
                    <mxGeometry relative="1" as="geometry"/>
                </mxCell>
                <mxCell id="43" value="&lt;pre style=&quot;background-color: #2b2b2b ; color: #a9b7c6 ; font-family: &amp;#34;jetbrains mono&amp;#34; , monospace ; font-size: 9.0pt&quot;&gt;boxesLast&lt;/pre&gt;&lt;pre style=&quot;background-color: #2b2b2b ; color: #a9b7c6 ; font-family: &amp;#34;jetbrains mono&amp;#34; , monospace ; font-size: 9.0pt&quot;&gt;&lt;pre style=&quot;font-family: &amp;#34;jetbrains mono&amp;#34; , monospace ; font-size: 9pt&quot;&gt;boxesCurrent&lt;/pre&gt;&lt;/pre&gt;" style="shape=parallelogram;perimeter=parallelogramPerimeter;whiteSpace=wrap;html=1;fixedSize=1;fontSize=14;" vertex="1" parent="42">
                    <mxGeometry x="60" y="70" width="120" height="60" as="geometry"/>
                </mxCell>
                <mxCell id="44" value="&lt;pre style=&quot;background-color: #2b2b2b ; color: #a9b7c6 ; font-family: &amp;#34;jetbrains mono&amp;#34; , monospace ; font-size: 9.0pt&quot;&gt;&lt;pre style=&quot;font-family: &amp;#34;jetbrains mono&amp;#34; , monospace ; font-size: 9pt&quot;&gt;&lt;span style=&quot;color: #b5b6e3&quot;&gt;Sort&lt;/span&gt;::&lt;/pre&gt;&lt;pre style=&quot;font-family: &amp;#34;jetbrains mono&amp;#34; , monospace ; font-size: 9pt&quot;&gt;&lt;span style=&quot;color: #ffc66d&quot;&gt;GetIOUMatrix()&lt;/span&gt;&lt;/pre&gt;&lt;/pre&gt;" style="whiteSpace=wrap;html=1;fontSize=14;" vertex="1" parent="42">
                    <mxGeometry x="260" y="70" width="120" height="60" as="geometry"/>
                </mxCell>
                <mxCell id="54" value="" style="edgeStyle=none;html=1;fontSize=14;" edge="1" parent="42" source="52" target="53">
                    <mxGeometry relative="1" as="geometry"/>
                </mxCell>
                <mxCell id="55" value="Y" style="edgeLabel;html=1;align=center;verticalAlign=middle;resizable=0;points=[];fontSize=14;" vertex="1" connectable="0" parent="54">
                    <mxGeometry x="-0.5568" y="-3" relative="1" as="geometry">
                        <mxPoint x="1" as="offset"/>
                    </mxGeometry>
                </mxCell>
                <mxCell id="59" value="" style="edgeStyle=none;html=1;fontSize=14;" edge="1" parent="42" source="52" target="58">
                    <mxGeometry relative="1" as="geometry"/>
                </mxCell>
                <mxCell id="60" value="N" style="edgeLabel;html=1;align=center;verticalAlign=middle;resizable=0;points=[];fontSize=14;" vertex="1" connectable="0" parent="59">
                    <mxGeometry x="-0.6727" y="4" relative="1" as="geometry">
                        <mxPoint as="offset"/>
                    </mxGeometry>
                </mxCell>
                <mxCell id="52" value="&lt;pre style=&quot;background-color: #2b2b2b ; color: #a9b7c6 ; font-family: &amp;#34;jetbrains mono&amp;#34; , monospace ; font-size: 9.0pt&quot;&gt;iouMatrix.size()&lt;/pre&gt;&lt;pre style=&quot;background-color: #2b2b2b ; color: #a9b7c6 ; font-family: &amp;#34;jetbrains mono&amp;#34; , monospace ; font-size: 9.0pt&quot;&gt; == &lt;span style=&quot;color: #6897bb&quot;&gt;0&lt;/span&gt;&lt;/pre&gt;" style="rhombus;whiteSpace=wrap;html=1;fontSize=14;" vertex="1" parent="42">
                    <mxGeometry x="247.5" y="180" width="145" height="120" as="geometry"/>
                </mxCell>
                <mxCell id="53" value="&lt;pre style=&quot;background-color: #2b2b2b ; color: #a9b7c6 ; font-family: &amp;#34;jetbrains mono&amp;#34; , monospace ; font-size: 9.0pt&quot;&gt;&lt;span style=&quot;color: #b5b6e3&quot;&gt;Sort&lt;/span&gt;::&lt;span style=&quot;color: #ffc66d&quot;&gt;Update()&lt;/span&gt;&lt;/pre&gt;" style="whiteSpace=wrap;html=1;fontSize=14;" vertex="1" parent="42">
                    <mxGeometry x="485" y="210" width="120" height="60" as="geometry"/>
                </mxCell>
                <mxCell id="58" value="" style="whiteSpace=wrap;html=1;fontSize=14;" vertex="1" parent="42">
                    <mxGeometry x="260" y="360" width="120" height="60" as="geometry"/>
                </mxCell>
                <mxCell id="50" value="" style="endArrow=classic;html=1;fontSize=14;exitX=0.5;exitY=1;exitDx=0;exitDy=0;" edge="1" parent="1" source="44">
                    <mxGeometry width="50" height="50" relative="1" as="geometry">
                        <mxPoint x="390" y="2400" as="sourcePoint"/>
                        <mxPoint x="374" y="2320" as="targetPoint"/>
                    </mxGeometry>
                </mxCell>
                <mxCell id="61" value="Sort::Update()" style="swimlane;fontSize=14;" vertex="1" parent="1">
                    <mxGeometry x="61" y="2800" width="709" height="870" as="geometry">
                        <mxRectangle x="61" y="2800" width="130" height="23" as="alternateBounds"/>
                    </mxGeometry>
                </mxCell>
                <mxCell id="64" value="" style="edgeStyle=none;html=1;fontSize=14;" edge="1" parent="61" source="62" target="63">
                    <mxGeometry relative="1" as="geometry"/>
                </mxCell>
                <mxCell id="62" value="&lt;pre style=&quot;background-color: #2b2b2b ; color: #a9b7c6 ; font-family: &amp;#34;jetbrains mono&amp;#34; , monospace ; font-size: 9.0pt&quot;&gt;matchedPairs&lt;/pre&gt;&lt;pre style=&quot;background-color: #2b2b2b ; color: #a9b7c6 ; font-family: &amp;#34;jetbrains mono&amp;#34; , monospace ; font-size: 9.0pt&quot;&gt;fresh&lt;/pre&gt;" style="shape=parallelogram;perimeter=parallelogramPerimeter;whiteSpace=wrap;html=1;fixedSize=1;fontSize=14;" vertex="1" parent="61">
                    <mxGeometry x="45" y="50" width="120" height="60" as="geometry"/>
                </mxCell>
                <mxCell id="63" value="&lt;pre style=&quot;background-color: rgb(43 , 43 , 43) ; color: rgb(169 , 183 , 198) ; font-family: &amp;#34;jetbrains mono&amp;#34; , monospace&quot;&gt;&lt;font style=&quot;font-size: 14px&quot;&gt;result.resize&lt;/font&gt;&lt;/pre&gt;" style="whiteSpace=wrap;html=1;fontSize=14;" vertex="1" parent="61">
                    <mxGeometry x="245" y="50" width="120" height="60" as="geometry"/>
                </mxCell>
                <mxCell id="70" value="" style="edgeStyle=none;html=1;fontSize=14;" edge="1" parent="61" source="68">
                    <mxGeometry relative="1" as="geometry">
                        <mxPoint x="305" y="340" as="targetPoint"/>
                    </mxGeometry>
                </mxCell>
                <mxCell id="68" value="tracker.Update(&lt;span style=&quot;background-color: rgb(43 , 43 , 43) ; color: rgb(169 , 183 , 198) ; font-family: &amp;#34;jetbrains mono&amp;#34; , monospace ; font-size: 9pt&quot;&gt;matchedPairs&lt;/span&gt;&lt;span&gt;)&lt;/span&gt;&lt;br&gt;result=tracker.Getstate()" style="rounded=0;whiteSpace=wrap;html=1;fontSize=14;" vertex="1" parent="61">
                    <mxGeometry x="190.01" y="170" width="231.25" height="80" as="geometry"/>
                </mxCell>
                <mxCell id="71" value="&lt;pre style=&quot;background-color: #2b2b2b ; color: #a9b7c6 ; font-family: &amp;#34;jetbrains mono&amp;#34; , monospace ; font-size: 9.0pt&quot;&gt;tracker = KalmanTracker(fresh)&lt;/pre&gt;&lt;pre style=&quot;background-color: #2b2b2b ; color: #a9b7c6 ; font-family: &amp;#34;jetbrains mono&amp;#34; , monospace ; font-size: 9.0pt&quot;&gt;&lt;span style=&quot;color: rgb(240 , 240 , 240) ; font-family: &amp;#34;helvetica&amp;#34; ; font-size: 14px ; background-color: rgb(42 , 42 , 42)&quot;&gt;result=tracker.Getstate()&lt;/span&gt;&lt;br&gt;&lt;/pre&gt;&lt;pre style=&quot;background-color: #2b2b2b ; color: #a9b7c6 ; font-family: &amp;#34;jetbrains mono&amp;#34; , monospace ; font-size: 9.0pt&quot;&gt;&lt;span style=&quot;color: rgb(240 , 240 , 240) ; font-family: &amp;#34;helvetica&amp;#34; ; font-size: 14px ; background-color: rgb(42 , 42 , 42)&quot;&gt;trackers.push_back(tracker)&lt;/span&gt;&lt;/pre&gt;" style="rounded=0;whiteSpace=wrap;html=1;fontSize=14;" vertex="1" parent="61">
                    <mxGeometry x="185.32" y="340" width="239.36" height="80" as="geometry"/>
                </mxCell>
                <mxCell id="77" value="" style="edgeStyle=none;html=1;fontSize=14;" edge="1" parent="61" source="73" target="76">
                    <mxGeometry relative="1" as="geometry"/>
                </mxCell>
                <mxCell id="73" value="tracker : trackers" style="rounded=0;whiteSpace=wrap;html=1;fontSize=14;" vertex="1" parent="61">
                    <mxGeometry x="245.63" y="490" width="120" height="60" as="geometry"/>
                </mxCell>
                <mxCell id="75" value="" style="endArrow=classic;html=1;fontSize=14;entryX=0.5;entryY=0;entryDx=0;entryDy=0;exitX=0.5;exitY=1;exitDx=0;exitDy=0;" edge="1" parent="61" source="71" target="73">
                    <mxGeometry width="50" height="50" relative="1" as="geometry">
                        <mxPoint x="329" y="470" as="sourcePoint"/>
                        <mxPoint x="379" y="420" as="targetPoint"/>
                        <Array as="points"/>
                    </mxGeometry>
                </mxCell>
                <mxCell id="76" value="" style="whiteSpace=wrap;html=1;fontSize=14;rounded=0;" vertex="1" parent="61">
                    <mxGeometry x="245.63" y="630" width="120" height="60" as="geometry"/>
                </mxCell>
                <mxCell id="67" value="" style="endArrow=classic;html=1;fontSize=14;exitX=0.5;exitY=1;exitDx=0;exitDy=0;" edge="1" parent="1" source="63">
                    <mxGeometry width="50" height="50" relative="1" as="geometry">
                        <mxPoint x="390" y="2970" as="sourcePoint"/>
                        <mxPoint x="366" y="2970" as="targetPoint"/>
                    </mxGeometry>
                </mxCell>
            </root>
        </mxGraphModel>
    </diagram>
</mxfile>